<?xml version="1.0"?>
<svg xmlns="http://www.w3.org/2000/svg" xmlns:xlink="http://www.w3.org/1999/xlink" xmlns:svgjs="http://svgjs.com/svgjs" version="1.1" width="512" height="512" x="0" y="0" viewBox="0 0 512 512" style="enable-background:new 0 0 512 512" xml:space="preserve" class=""><g><path xmlns="http://www.w3.org/2000/svg" d="m426.835938 42.816406h-341.332032c-23.53125 0-42.667968 19.136719-42.667968 42.667969v341.332031c0 23.53125 19.136718 42.667969 42.667968 42.667969h341.332032c23.53125 0 42.667968-19.136719 42.667968-42.667969v-341.332031c0-23.53125-19.15625-42.667969-42.667968-42.667969zm0 0" fill="#d1b4b4" data-original="#455a64" style="" class=""/><path xmlns="http://www.w3.org/2000/svg" d="m416 426.515625h-319.828125c-5.890625 0-10.667969-4.777344-10.667969-10.664063v-319.703124c0-5.886719 4.777344-10.664063 10.644532-10.664063l255.832031-.320313h.019531c2.835938 0 5.546875 1.128907 7.550781 3.113282l64 64c1.984375 2.027344 3.117188 4.734375 3.117188 7.574218v256c0 5.886719-4.78125 10.664063-10.667969 10.664063zm0 0" fill="#a7d9a5" data-original="#00bcd4" style="" class=""/><path xmlns="http://www.w3.org/2000/svg" d="m426.816406 469.484375h-341.332031c-23.53125 0-42.667969-19.136719-42.667969-42.667969v-341.332031c0-23.53125 19.136719-42.667969 42.667969-42.667969h341.332031c23.53125 0 42.667969 19.136719 42.667969 42.667969v341.332031c0 23.53125-19.136719 42.667969-42.667969 42.667969zm-341.332031-405.335937c-11.757813 0-21.335937 9.578124-21.335937 21.335937v341.332031c0 11.753906 9.578124 21.332032 21.335937 21.332032h341.332031c11.753906 0 21.332032-9.578126 21.332032-21.332032v-341.332031c0-11.757813-9.578126-21.335937-21.332032-21.335937zm0 0" fill="#4e4e5a" data-original="#000000" style="" class=""/><path xmlns="http://www.w3.org/2000/svg" d="m117.332031 63.851562c-5.886719 0-10.664062-4.78125-10.664062-10.667968v-42.515625c0-5.890625 4.777343-10.667969 10.664062-10.667969 5.890625 0 10.667969 4.777344 10.667969 10.667969v42.515625c0 5.886718-4.777344 10.667968-10.667969 10.667968zm0 0" fill="#4e4e5a" data-original="#000000" style="" class=""/><path xmlns="http://www.w3.org/2000/svg" d="m394.667969 63.851562c-5.890625 0-10.667969-4.78125-10.667969-10.667968v-42.515625c0-5.890625 4.777344-10.667969 10.667969-10.667969 5.886719 0 10.664062 4.777344 10.664062 10.667969v42.515625c0 5.886718-4.777343 10.667968-10.664062 10.667968zm0 0" fill="#4e4e5a" data-original="#000000" style="" class=""/><path xmlns="http://www.w3.org/2000/svg" d="m202.667969 63.851562c-5.890625 0-10.667969-4.78125-10.667969-10.667968v-42.515625c0-5.890625 4.777344-10.667969 10.667969-10.667969 5.886719 0 10.664062 4.777344 10.664062 10.667969v42.515625c0 5.886718-4.777343 10.667968-10.664062 10.667968zm0 0" fill="#4e4e5a" data-original="#000000" style="" class=""/><path xmlns="http://www.w3.org/2000/svg" d="m309.332031 63.851562c-5.886719 0-10.664062-4.78125-10.664062-10.667968v-42.515625c0-5.890625 4.777343-10.667969 10.664062-10.667969 5.890625 0 10.667969 4.777344 10.667969 10.667969v42.515625c0 5.886718-4.777344 10.667968-10.667969 10.667968zm0 0" fill="#4e4e5a" data-original="#000000" style="" class=""/><path xmlns="http://www.w3.org/2000/svg" d="m117.332031 512c-5.886719 0-10.664062-4.777344-10.664062-10.667969v-42.816406c0-5.886719 4.777343-10.664063 10.664062-10.664063 5.890625 0 10.667969 4.777344 10.667969 10.664063v42.816406c0 5.890625-4.777344 10.667969-10.667969 10.667969zm0 0" fill="#4e4e5a" data-original="#000000" style="" class=""/><path xmlns="http://www.w3.org/2000/svg" d="m394.667969 512c-5.890625 0-10.667969-4.777344-10.667969-10.667969v-42.816406c0-5.886719 4.777344-10.664063 10.667969-10.664063 5.886719 0 10.664062 4.777344 10.664062 10.664063v42.816406c0 5.890625-4.777343 10.667969-10.664062 10.667969zm0 0" fill="#4e4e5a" data-original="#000000" style="" class=""/><path xmlns="http://www.w3.org/2000/svg" d="m202.667969 512c-5.890625 0-10.667969-4.777344-10.667969-10.667969v-42.816406c0-5.886719 4.777344-10.664063 10.667969-10.664063 5.886719 0 10.664062 4.777344 10.664062 10.664063v42.816406c0 5.890625-4.777343 10.667969-10.664062 10.667969zm0 0" fill="#4e4e5a" data-original="#000000" style="" class=""/><path xmlns="http://www.w3.org/2000/svg" d="m309.332031 512c-5.886719 0-10.664062-4.777344-10.664062-10.667969v-42.816406c0-5.886719 4.777343-10.664063 10.664062-10.664063 5.890625 0 10.667969 4.777344 10.667969 10.664063v42.816406c0 5.890625-4.777344 10.667969-10.667969 10.667969zm0 0" fill="#4e4e5a" data-original="#000000" style="" class=""/><path xmlns="http://www.w3.org/2000/svg" d="m53.332031 405.332031h-42.664062c-5.890625 0-10.667969-4.777343-10.667969-10.664062 0-5.890625 4.777344-10.667969 10.667969-10.667969h42.664062c5.890625 0 10.667969 4.777344 10.667969 10.667969 0 5.886719-4.777344 10.664062-10.667969 10.664062zm0 0" fill="#4e4e5a" data-original="#000000" style="" class=""/><path xmlns="http://www.w3.org/2000/svg" d="m53.332031 128h-42.664062c-5.890625 0-10.667969-4.777344-10.667969-10.667969 0-5.886719 4.777344-10.664062 10.667969-10.664062h42.664062c5.890625 0 10.667969 4.777343 10.667969 10.664062 0 5.890625-4.777344 10.667969-10.667969 10.667969zm0 0" fill="#4e4e5a" data-original="#000000" style="" class=""/><path xmlns="http://www.w3.org/2000/svg" d="m53.332031 320h-42.664062c-5.890625 0-10.667969-4.777344-10.667969-10.667969 0-5.886719 4.777344-10.664062 10.667969-10.664062h42.664062c5.890625 0 10.667969 4.777343 10.667969 10.664062 0 5.890625-4.777344 10.667969-10.667969 10.667969zm0 0" fill="#4e4e5a" data-original="#000000" style="" class=""/><path xmlns="http://www.w3.org/2000/svg" d="m53.332031 213.332031h-42.664062c-5.890625 0-10.667969-4.777343-10.667969-10.664062 0-5.890625 4.777344-10.667969 10.667969-10.667969h42.664062c5.890625 0 10.667969 4.777344 10.667969 10.667969 0 5.886719-4.777344 10.664062-10.667969 10.664062zm0 0" fill="#4e4e5a" data-original="#000000" style="" class=""/><path xmlns="http://www.w3.org/2000/svg" d="m501.332031 405.332031h-42.664062c-5.890625 0-10.667969-4.777343-10.667969-10.664062 0-5.890625 4.777344-10.667969 10.667969-10.667969h42.664062c5.890625 0 10.667969 4.777344 10.667969 10.667969 0 5.886719-4.777344 10.664062-10.667969 10.664062zm0 0" fill="#4e4e5a" data-original="#000000" style="" class=""/><path xmlns="http://www.w3.org/2000/svg" d="m501.332031 128h-42.664062c-5.890625 0-10.667969-4.777344-10.667969-10.667969 0-5.886719 4.777344-10.664062 10.667969-10.664062h42.664062c5.890625 0 10.667969 4.777343 10.667969 10.664062 0 5.890625-4.777344 10.667969-10.667969 10.667969zm0 0" fill="#4e4e5a" data-original="#000000" style="" class=""/><path xmlns="http://www.w3.org/2000/svg" d="m501.332031 320h-42.664062c-5.890625 0-10.667969-4.777344-10.667969-10.667969 0-5.886719 4.777344-10.664062 10.667969-10.664062h42.664062c5.890625 0 10.667969 4.777343 10.667969 10.664062 0 5.890625-4.777344 10.667969-10.667969 10.667969zm0 0" fill="#4e4e5a" data-original="#000000" style="" class=""/><path xmlns="http://www.w3.org/2000/svg" d="m501.332031 213.332031h-42.664062c-5.890625 0-10.667969-4.777343-10.667969-10.664062 0-5.890625 4.777344-10.667969 10.667969-10.667969h42.664062c5.890625 0 10.667969 4.777344 10.667969 10.667969 0 5.886719-4.777344 10.664062-10.667969 10.664062zm0 0" fill="#4e4e5a" data-original="#000000" style="" class=""/><path xmlns="http://www.w3.org/2000/svg" d="m416 426.667969h-320c-5.886719 0-10.667969-4.78125-10.667969-10.667969v-320c0-5.886719 4.78125-10.667969 10.667969-10.667969h256c2.835938 0 5.546875 1.132813 7.550781 3.117188l64 64c1.984375 2.003906 3.117188 4.714843 3.117188 7.550781v256c0 5.886719-4.78125 10.667969-10.667969 10.667969zm-309.332031-21.335938h298.664062v-240.917969l-57.746093-57.746093h-240.917969zm0 0" fill="#4e4e5a" data-original="#000000" style="" class=""/><path xmlns="http://www.w3.org/2000/svg" d="m256 362.667969c-4.886719 0-9.152344-3.328125-10.347656-8.085938l-23.699219-94.761719-19.96875 53.269532c-1.492187 3.964844-5.183594 6.675781-9.429687 6.910156-4.179688.40625-8.214844-2.089844-10.113282-5.886719l-18.367187-36.78125h-25.40625c-5.890625 0-10.667969-4.777343-10.667969-10.664062 0-5.890625 4.777344-10.667969 10.667969-10.667969h32c4.03125 0 7.722656 2.28125 9.535156 5.886719l10.390625 20.800781 23.402344-62.441406c1.640625-4.375 6.035156-7.210938 10.601562-6.890625 4.671875.253906 8.617188 3.539062 9.75 8.0625l21.652344 86.59375 32.320312-129.28125c1.214844-4.90625 5.289063-8.320313 10.773438-8.0625 5.054688.191406 9.257812 3.925781 10.089844 8.894531l15.9375 95.636719 6.65625-13.332031c1.832031-3.585938 5.523437-5.867188 9.554687-5.867188h32c5.890625 0 10.667969 4.777344 10.667969 10.667969 0 5.886719-4.777344 10.664062-10.667969 10.664062h-25.40625l-18.390625 36.78125c-2.046875 4.117188-6.527344 6.460938-11.113281 5.78125-4.566406-.683593-8.171875-4.246093-8.9375-8.8125l-12.910156-77.398437-30.226563 120.898437c-1.195312 4.757813-5.460937 8.085938-10.347656 8.085938zm0 0" fill="#4e4e5a" data-original="#000000" style="" class=""/></g></svg>
