<?xml version="1.0"?>
<svg xmlns="http://www.w3.org/2000/svg" xmlns:xlink="http://www.w3.org/1999/xlink" xmlns:svgjs="http://svgjs.com/svgjs" version="1.1" width="512" height="512" x="0" y="0" viewBox="0 0 490.699 490.699" style="enable-background:new 0 0 512 512" xml:space="preserve" class=""><g transform="matrix(1,0,0,1,0,0)">
<g xmlns="http://www.w3.org/2000/svg">
	<path style="" d="M483.64,144.599c-96.343-73.645-221.348-98.551-338.56-67.456   c-5.696,1.503-9.095,7.339-7.592,13.035c0.481,1.824,1.437,3.487,2.771,4.821l215.595,215.637c2.004,1.999,4.721,3.12,7.552,3.115   h0.725c3.085-0.229,5.918-1.786,7.765-4.267L485.688,159.49C489.213,154.806,488.298,148.157,483.64,144.599z" fill="#95e7aa" data-original="#64b5f6" class=""/>
	<path style="" d="M344.909,329.836L110.243,95.17c-3.027-3.028-7.572-3.952-11.541-2.347   c-32.711,13.117-63.531,30.528-91.648,51.776c-4.713,3.535-5.668,10.22-2.133,14.933L236.813,465.09   c3.535,4.713,10.221,5.668,14.933,2.133c0.809-0.606,1.527-1.325,2.133-2.133l92.011-121.323   C349.071,339.525,348.653,333.591,344.909,329.836z" fill="#95e7aa" data-original="#64b5f6" class=""/>
</g>
<path xmlns="http://www.w3.org/2000/svg" style="" d="M480.013,490.69c-2.831,0.005-5.548-1.115-7.552-3.115L3.128,18.242  c-4.171-4.171-4.171-10.933,0-15.104s10.933-4.171,15.104,0l469.333,469.333c4.171,4.16,4.179,10.914,0.019,15.085  C485.579,489.567,482.854,490.695,480.013,490.69z" fill="#4e4e5a" data-original="#f44336" class=""/>
<path xmlns="http://www.w3.org/2000/svg" d="M363.384,313.751c-5.891,0-10.667-4.776-10.667-10.667c0-2.308,0.749-4.554,2.133-6.4l107.243-141.397  c-90.015-64.893-204.374-86.03-311.637-57.6c-5.805,1.001-11.323-2.894-12.324-8.699c-0.883-5.12,2.051-10.131,6.948-11.866  c117.206-31.079,242.197-6.173,338.539,67.456c4.713,3.535,5.668,10.22,2.133,14.933L371.982,309.506  C369.949,312.202,366.76,313.776,363.384,313.751z" fill="#4e4e5a" data-original="#000000" style="" class=""/>
<path xmlns="http://www.w3.org/2000/svg" d="M245.347,469.356c-3.357,0-6.519-1.581-8.533-4.267L5.005,159.532c-3.535-4.713-2.579-11.399,2.133-14.933  c28.076-21.251,58.852-38.676,91.52-51.819c3.969-1.605,8.514-0.681,11.541,2.347l234.667,234.667  c3.762,3.766,4.171,9.728,0.96,13.973L253.88,465.09C251.866,467.776,248.704,469.356,245.347,469.356z M28.536,155.244  l216.811,285.803l77.888-102.699L100.152,115.223C74.892,125.911,50.877,139.331,28.536,155.244z" fill="#4e4e5a" data-original="#000000" style="" class=""/>
<path xmlns="http://www.w3.org/2000/svg" d="M480.013,490.69c-2.831,0.005-5.548-1.115-7.552-3.115L3.128,18.242c-4.171-4.171-4.171-10.933,0-15.104  s10.933-4.171,15.104,0l469.333,469.333c4.171,4.16,4.179,10.914,0.019,15.085C485.579,489.567,482.854,490.695,480.013,490.69z" fill="#4e4e5a" data-original="#000000" style="" class=""/>
<g xmlns="http://www.w3.org/2000/svg">
</g>
<g xmlns="http://www.w3.org/2000/svg">
</g>
<g xmlns="http://www.w3.org/2000/svg">
</g>
<g xmlns="http://www.w3.org/2000/svg">
</g>
<g xmlns="http://www.w3.org/2000/svg">
</g>
<g xmlns="http://www.w3.org/2000/svg">
</g>
<g xmlns="http://www.w3.org/2000/svg">
</g>
<g xmlns="http://www.w3.org/2000/svg">
</g>
<g xmlns="http://www.w3.org/2000/svg">
</g>
<g xmlns="http://www.w3.org/2000/svg">
</g>
<g xmlns="http://www.w3.org/2000/svg">
</g>
<g xmlns="http://www.w3.org/2000/svg">
</g>
<g xmlns="http://www.w3.org/2000/svg">
</g>
<g xmlns="http://www.w3.org/2000/svg">
</g>
<g xmlns="http://www.w3.org/2000/svg">
</g>
</g></svg>
