<?xml version="1.0"?>
<svg xmlns="http://www.w3.org/2000/svg" xmlns:xlink="http://www.w3.org/1999/xlink" xmlns:svgjs="http://svgjs.com/svgjs" version="1.1" width="512" height="512" x="0" y="0" viewBox="0 0 24 24" style="enable-background:new 0 0 512 512" xml:space="preserve" class=""><g><path xmlns="http://www.w3.org/2000/svg" d="m5 1.25c-1.51878 0-2.75 1.23122-2.75 2.75v16c0 1.5188 1.23122 2.75 2.75 2.75h3c1.51878 0 2.75-1.2312 2.75-2.75v-16c0-1.51878-1.23122-2.75-2.75-2.75z" fill="#ff716a" data-original="#f44336" style="" class=""/><path xmlns="http://www.w3.org/2000/svg" d="m16 1.25c-1.5188 0-2.75 1.23122-2.75 2.75v16c0 1.5188 1.2312 2.75 2.75 2.75h3c1.5188 0 2.75-1.2312 2.75-2.75v-16c0-1.51878-1.2312-2.75-2.75-2.75z" fill="#ff716a" data-original="#f44336" style="" class=""/><g xmlns="http://www.w3.org/2000/svg" clip-rule="evenodd" fill="#000" fill-rule="evenodd"><path d="m5 1.25c-1.51878 0-2.75 1.23122-2.75 2.75v16c0 1.5188 1.23122 2.75 2.75 2.75h3c1.51878 0 2.75-1.2312 2.75-2.75v-16c0-1.51878-1.23122-2.75-2.75-2.75zm-1.25 2.75c0-.69036.55964-1.25 1.25-1.25h3c.69036 0 1.25.55964 1.25 1.25v16c0 .6904-.55964 1.25-1.25 1.25h-3c-.69036 0-1.25-.5596-1.25-1.25z" fill="#4e4e5a" data-original="#000000" style="" class=""/><path d="m16 1.25c-1.5188 0-2.75 1.23122-2.75 2.75v16c0 1.5188 1.2312 2.75 2.75 2.75h3c1.5188 0 2.75-1.2312 2.75-2.75v-16c0-1.51878-1.2312-2.75-2.75-2.75zm-1.25 2.75c0-.69036.5596-1.25 1.25-1.25h3c.6904 0 1.25.55964 1.25 1.25v16c0 .6904-.5596 1.25-1.25 1.25h-3c-.6904 0-1.25-.5596-1.25-1.25z" fill="#4e4e5a" data-original="#000000" style="" class=""/></g></g></svg>
