<?xml version="1.0"?>
<svg xmlns="http://www.w3.org/2000/svg" xmlns:xlink="http://www.w3.org/1999/xlink" xmlns:svgjs="http://svgjs.com/svgjs" version="1.1" width="512" height="512" x="0" y="0" viewBox="0 0 24 24" style="enable-background:new 0 0 512 512" xml:space="preserve" class=""><g><path xmlns="http://www.w3.org/2000/svg" d="m5.43593 1.3897c-.22861-.16329-.52931-.18513-.77912-.05657-.2498.12855-.40681.38593-.40681.66687v19.5c0 .2777.15344.5327.39882.6627s.54252.1138.77231-.0421l13.99997-9.5c.2031-.1378.3259-.3662.3288-.6116.003-.2454-.1143-.4767-.314-.6193z" fill="#71e58f" data-original="#4caf50" style="" class=""/><path xmlns="http://www.w3.org/2000/svg" clip-rule="evenodd" d="m4.65681 1.33313c.24981-.12856.55051-.10672.77912.05657l13.99997 10c.1997.1426.317.3739.314.6193-.0029.2454-.1257.4738-.3288.6116l-13.99997 9.5c-.22979.1559-.52693.1721-.77231.0421s-.39882-.385-.39882-.6627v-19.5c0-.28094.15701-.53832.40681-.66687zm1.09319 2.12426v16.62731l11.9376-8.1005z" fill="#4e4e5a" fill-rule="evenodd" data-original="#000000" style="" class=""/></g></svg>
