<?xml version="1.0"?>
<svg xmlns="http://www.w3.org/2000/svg" xmlns:xlink="http://www.w3.org/1999/xlink" xmlns:svgjs="http://svgjs.com/svgjs" version="1.1" width="512" height="512" x="0" y="0" viewBox="0 0 512.035 512.035" style="enable-background:new 0 0 512 512" xml:space="preserve" class=""><g>
<path xmlns="http://www.w3.org/2000/svg" style="" d="M297.62,18.705c-5.907-2.868-12.974-2.049-18.095,2.049L113.489,153.602H34.142  C15.296,153.602,0,168.897,0,187.744v136.57c0,18.847,15.296,34.142,34.142,34.142h79.347l166.035,132.848  c5.156,4.097,12.189,4.882,18.095,2.014c5.907-2.834,9.662-8.809,9.662-15.364V34.103C307.282,27.548,303.526,21.573,297.62,18.705z  " fill="#f5b0b1" data-original="#455a64" class=""/>
<path xmlns="http://www.w3.org/2000/svg" d="M119.499,358.456H34.142C15.296,358.456,0,343.16,0,324.314v-136.57c0-18.847,15.296-34.142,34.142-34.142h85.356  c9.423,0,17.071,7.648,17.071,17.071v170.712C136.57,350.808,128.922,358.456,119.499,358.456z M34.142,187.744v136.57h68.285  v-136.57H34.142z" fill="#4e4e5a" data-original="#000000" style="" class=""/>
<path xmlns="http://www.w3.org/2000/svg" d="M290.211,495.026c-3.858,0-7.614-1.297-10.652-3.722l-170.712-136.57c-7.375-5.872-8.57-16.627-2.697-24.002  c5.873-7.375,16.627-8.57,24.002-2.697l0,0l142.989,114.377V69.645L130.151,184.022c-7.375,5.907-18.13,4.678-24.002-2.697  s-4.678-18.095,2.697-24.002l0,0l170.712-136.57c7.375-5.872,18.095-4.678,24.002,2.697c2.424,3.039,3.722,6.794,3.722,10.652  v443.852C307.282,487.378,299.634,495.026,290.211,495.026z" fill="#4e4e5a" data-original="#000000" style="" class=""/>
<g xmlns="http://www.w3.org/2000/svg">
	<path style="" d="M381.712,381.673c-9.423-0.034-17.071-7.682-17.037-17.105c0-4.541,1.844-8.877,5.053-12.086   c53.262-53.228,53.331-139.54,0.102-192.802c-0.034-0.034-0.068-0.068-0.102-0.102c-6.248-7.033-5.633-17.822,1.434-24.105   c6.385-5.668,15.979-5.736,22.466-0.171c66.68,66.475,66.851,174.4,0.376,241.08c-0.137,0.137-0.239,0.239-0.376,0.376   C390.453,379.898,386.185,381.673,381.712,381.673z" fill="#f5b0b1" data-original="#ffc107" class=""/>
	<path style="" d="M429.853,429.814c-9.423,0-17.071-7.648-17.071-17.071c0-4.541,1.81-8.911,5.053-12.121   c79.859-79.347,80.269-208.405,0.922-288.265c-0.307-0.307-0.615-0.615-0.922-0.922c-7.204-6.077-8.126-16.832-2.014-24.036   c6.111-7.204,16.866-8.126,24.07-2.014c0.683,0.58,1.297,1.195,1.878,1.844c93.243,92.628,93.755,243.299,1.127,336.542   c-0.376,0.376-0.751,0.751-1.127,1.127C438.56,428.004,434.292,429.78,429.853,429.814z" fill="#f5b0b1" data-original="#ffc107" class=""/>
</g>
<g xmlns="http://www.w3.org/2000/svg">
</g>
<g xmlns="http://www.w3.org/2000/svg">
</g>
<g xmlns="http://www.w3.org/2000/svg">
</g>
<g xmlns="http://www.w3.org/2000/svg">
</g>
<g xmlns="http://www.w3.org/2000/svg">
</g>
<g xmlns="http://www.w3.org/2000/svg">
</g>
<g xmlns="http://www.w3.org/2000/svg">
</g>
<g xmlns="http://www.w3.org/2000/svg">
</g>
<g xmlns="http://www.w3.org/2000/svg">
</g>
<g xmlns="http://www.w3.org/2000/svg">
</g>
<g xmlns="http://www.w3.org/2000/svg">
</g>
<g xmlns="http://www.w3.org/2000/svg">
</g>
<g xmlns="http://www.w3.org/2000/svg">
</g>
<g xmlns="http://www.w3.org/2000/svg">
</g>
<g xmlns="http://www.w3.org/2000/svg">
</g>
</g></svg>
