<?xml version="1.0"?>
<svg xmlns="http://www.w3.org/2000/svg" xmlns:xlink="http://www.w3.org/1999/xlink" xmlns:svgjs="http://svgjs.com/svgjs" version="1.1" width="512" height="512" x="0" y="0" viewBox="0 0 511.993 511.993" style="enable-background:new 0 0 512 512" xml:space="preserve" class=""><g>
<path xmlns="http://www.w3.org/2000/svg" style="" d="M410.207,1.819c-6.326-3.072-13.896-2.194-19.381,2.194L212.991,146.302h-84.986  c-20.186,0-36.569,16.383-36.569,36.569v146.275c0,20.186,16.383,36.569,36.569,36.569h84.986l177.834,142.289  c5.522,4.388,13.055,5.229,19.381,2.158c6.326-3.035,10.349-9.435,10.349-16.456V18.311C420.593,11.29,416.57,4.854,410.207,1.819z" fill="#f5b0b1" data-original="#455a64" class=""/>
<path xmlns="http://www.w3.org/2000/svg" d="M219.428,365.715h-91.422c-20.186,0-36.569-16.383-36.569-36.569V182.871c0-20.186,16.383-36.569,36.569-36.569h91.422  c10.093,0,18.284,8.191,18.284,18.284V347.43C237.712,357.523,229.557,365.715,219.428,365.715z M128.006,182.871v146.275h73.138  V182.871L128.006,182.871L128.006,182.871z" fill="#4e4e5a" data-original="#000000" style="" class=""/>
<path xmlns="http://www.w3.org/2000/svg" d="M402.272,511.99c-4.132,0-8.155-1.39-11.409-3.986L208.018,361.729c-7.899-6.326-9.179-17.809-2.889-25.708  c6.326-7.899,17.809-9.215,25.708-2.889l0,0l153.15,122.506V56.379l-153.15,122.506c-7.899,6.29-19.381,5.01-25.708-2.889  s-5.01-19.418,2.889-25.708l0,0L390.862,4.013c7.899-6.29,19.381-5.01,25.708,2.889c2.596,3.255,3.986,7.277,3.986,11.409v475.395  c0,7.021-4.023,13.457-10.349,16.493C407.757,511.368,405.051,511.99,402.272,511.99z" fill="#4e4e5a" data-original="#000000" style="" class=""/>
<g xmlns="http://www.w3.org/2000/svg">
</g>
<g xmlns="http://www.w3.org/2000/svg">
</g>
<g xmlns="http://www.w3.org/2000/svg">
</g>
<g xmlns="http://www.w3.org/2000/svg">
</g>
<g xmlns="http://www.w3.org/2000/svg">
</g>
<g xmlns="http://www.w3.org/2000/svg">
</g>
<g xmlns="http://www.w3.org/2000/svg">
</g>
<g xmlns="http://www.w3.org/2000/svg">
</g>
<g xmlns="http://www.w3.org/2000/svg">
</g>
<g xmlns="http://www.w3.org/2000/svg">
</g>
<g xmlns="http://www.w3.org/2000/svg">
</g>
<g xmlns="http://www.w3.org/2000/svg">
</g>
<g xmlns="http://www.w3.org/2000/svg">
</g>
<g xmlns="http://www.w3.org/2000/svg">
</g>
<g xmlns="http://www.w3.org/2000/svg">
</g>
</g></svg>
