<?xml version="1.0"?>
<svg xmlns="http://www.w3.org/2000/svg" xmlns:xlink="http://www.w3.org/1999/xlink" xmlns:svgjs="http://svgjs.com/svgjs" version="1.1" width="512" height="512" x="0" y="0" viewBox="0 0 511.993 511.993" style="enable-background:new 0 0 512 512" xml:space="preserve" class=""><g>
<path xmlns="http://www.w3.org/2000/svg" style="" d="M337.12,1.819c-6.326-3.072-13.896-2.194-19.381,2.194L139.904,146.302H54.918  c-20.186,0-36.569,16.383-36.569,36.569v146.275c0,20.186,16.383,36.569,36.569,36.569h84.986l177.834,142.289  c5.522,4.388,13.055,5.229,19.381,2.158c6.326-3.035,10.349-9.435,10.349-16.456V18.311C347.469,11.29,343.446,4.854,337.12,1.819z" fill="#f5b0b1" data-original="#455a64" class=""/>
<path xmlns="http://www.w3.org/2000/svg" d="M146.34,365.715H54.918c-20.186,0-36.569-16.383-36.569-36.569V182.871c0-20.186,16.383-36.569,36.569-36.569h91.422  c10.093,0,18.284,8.191,18.284,18.284V347.43C164.625,357.523,156.433,365.715,146.34,365.715z M54.918,182.871v146.275h73.138  V182.871L54.918,182.871L54.918,182.871z" fill="#4e4e5a" data-original="#000000" style="" class=""/>
<path xmlns="http://www.w3.org/2000/svg" d="M329.184,511.99c-4.132,0-8.155-1.39-11.409-3.986L134.931,361.729c-7.899-6.326-9.179-17.809-2.889-25.708  c6.29-7.899,17.809-9.215,25.708-2.889l0,0L310.9,455.638V56.379L157.75,178.885c-7.899,6.29-19.418,5.01-25.708-2.889  c-6.29-7.899-5.01-19.418,2.889-25.708l0,0L317.775,4.013c7.899-6.29,19.381-5.01,25.708,2.889  c2.596,3.255,3.986,7.277,3.986,11.409v475.395c0,7.021-4.023,13.457-10.349,16.493C334.633,511.368,331.927,511.99,329.184,511.99z  " fill="#4e4e5a" data-original="#000000" style="" class=""/>
<path xmlns="http://www.w3.org/2000/svg" style="" d="M427.189,390.582c-10.093,0.037-18.284-8.155-18.321-18.248c0-4.9,1.938-9.618,5.449-13.055  c57.047-56.865,57.157-149.201,0.293-206.248c-0.11-0.11-0.183-0.183-0.293-0.293c-6.802-7.46-6.253-19.016,1.207-25.818  c6.875-6.29,17.407-6.363,24.391-0.219c71.419,71.126,71.675,186.647,0.549,258.066c-0.183,0.183-0.366,0.366-0.549,0.549  C436.514,388.644,431.943,390.545,427.189,390.582z" fill="#f5b0b1" data-original="#ffc107" class=""/>
<g xmlns="http://www.w3.org/2000/svg">
</g>
<g xmlns="http://www.w3.org/2000/svg">
</g>
<g xmlns="http://www.w3.org/2000/svg">
</g>
<g xmlns="http://www.w3.org/2000/svg">
</g>
<g xmlns="http://www.w3.org/2000/svg">
</g>
<g xmlns="http://www.w3.org/2000/svg">
</g>
<g xmlns="http://www.w3.org/2000/svg">
</g>
<g xmlns="http://www.w3.org/2000/svg">
</g>
<g xmlns="http://www.w3.org/2000/svg">
</g>
<g xmlns="http://www.w3.org/2000/svg">
</g>
<g xmlns="http://www.w3.org/2000/svg">
</g>
<g xmlns="http://www.w3.org/2000/svg">
</g>
<g xmlns="http://www.w3.org/2000/svg">
</g>
<g xmlns="http://www.w3.org/2000/svg">
</g>
<g xmlns="http://www.w3.org/2000/svg">
</g>
</g></svg>
