#define max_width 6
#define max_height 6
static unsigned char max_bits[] = {
   0x00, 0x00, 0x0c, 0x12, 0x21, 0x00 };
