#define iconify_width  14
#define iconify_height 13
static unsigned char iconify_bits[] = {
 0x00,0xc0,0x00,0xc0,0x00,0xc0,0x00,0xc0,0x00,0xc0,0x00,0xc0,
 0xf8,0xc7,0xf8,0xc7,0xf8,0xc7,0x00,0xc0,0x00,0xc0,0x00,0xc0,
 0x00,0xc0};
