<?xml version="1.0"?>
<svg xmlns="http://www.w3.org/2000/svg" xmlns:xlink="http://www.w3.org/1999/xlink" xmlns:svgjs="http://svgjs.com/svgjs" version="1.1" width="512" height="512" x="0" y="0" viewBox="0 0 24 24" style="enable-background:new 0 0 512 512" xml:space="preserve" class=""><g><path xmlns="http://www.w3.org/2000/svg" d="m22.25 6.5h-20.5c-.965 0-1.75.662-1.75 1.477v10.547c0 .814.785 1.476 1.75 1.476h20.5c.965 0 1.75-.662 1.75-1.477v-10.546c0-.815-.785-1.477-1.75-1.477z" fill="#b5babd" data-original="#607d8b" style="" class=""/><path xmlns="http://www.w3.org/2000/svg" d="m.812 4.75h22.375v14.5h-22.375z" fill="#bbbbbb" data-original="#ffffff" style="" class=""/><circle xmlns="http://www.w3.org/2000/svg" cx="12" cy="6.5" fill="#a2e7e7" r="6.5" data-original="#4caf50" style="" class=""/><path xmlns="http://www.w3.org/2000/svg" d="m22.25 20h-20.5c-.965 0-1.75-.785-1.75-1.75v-12.5c0-.965.785-1.75 1.75-1.75h1.5c.414 0 .75.336.75.75s-.336.75-.75.75h-1.5c-.138 0-.25.112-.25.25v12.5c0 .138.112.25.25.25h20.5c.138 0 .25-.112.25-.25v-12.5c0-.138-.112-.25-.25-.25h-1.5c-.414 0-.75-.336-.75-.75s.336-.75.75-.75h1.5c.965 0 1.75.785 1.75 1.75v12.5c0 .965-.785 1.75-1.75 1.75z" fill="#4e4e5a" data-original="#000000" style="" class=""/><path xmlns="http://www.w3.org/2000/svg" d="m16.25 24h-8.5c-.414 0-.75-.336-.75-.75s.336-.75.75-.75h8.5c.414 0 .75.336.75.75s-.336.75-.75.75z" fill="#4e4e5a" data-original="#000000" style="" class=""/><path xmlns="http://www.w3.org/2000/svg" d="m12 24c-.414 0-.75-.336-.75-.75v-4c0-.414.336-.75.75-.75s.75.336.75.75v4c0 .414-.336.75-.75.75z" fill="#4e4e5a" data-original="#000000" style="" class=""/><path xmlns="http://www.w3.org/2000/svg" d="m12 13c-3.584 0-6.5-2.916-6.5-6.5s2.916-6.5 6.5-6.5 6.5 2.916 6.5 6.5-2.916 6.5-6.5 6.5zm0-11.5c-2.757 0-5 2.243-5 5s2.243 5 5 5 5-2.243 5-5-2.243-5-5-5z" fill="#4e4e5a" data-original="#000000" style="" class=""/><path xmlns="http://www.w3.org/2000/svg" d="m13.75 9c-.192 0-.384-.073-.53-.22l-1.75-1.75c-.141-.141-.22-.331-.22-.53v-2.75c0-.414.336-.75.75-.75s.75.336.75.75v2.439l1.53 1.53c.293.293.293.768 0 1.061-.146.147-.338.22-.53.22z" fill="#4e4e5a" data-original="#000000" style="" class=""/></g></svg>
