<?xml version="1.0"?>
<svg xmlns="http://www.w3.org/2000/svg" xmlns:xlink="http://www.w3.org/1999/xlink" xmlns:svgjs="http://svgjs.com/svgjs" version="1.1" width="512" height="512" x="0" y="0" viewBox="0 0 24 24" style="enable-background:new 0 0 512 512" xml:space="preserve" class=""><g><path xmlns="http://www.w3.org/2000/svg" d="m17.729 23h-11.458c-1.39 0-2.521-1.131-2.521-2.521v-16.958c0-1.39 1.131-2.521 2.521-2.521h11.458c1.39 0 2.521 1.131 2.521 2.521v16.958c0 1.39-1.131 2.521-2.521 2.521z" fill="#889ccb" data-original="#607d8b" style="" class=""/><circle xmlns="http://www.w3.org/2000/svg" cx="12" cy="9" fill="#fbdf90" r="5.25" data-original="#90a4ae" style="" class=""/><path xmlns="http://www.w3.org/2000/svg" d="m8.125 20.375c-.804 0-1.458-.672-1.458-1.497 0-.347.119-.686.334-.954.001 0 .001-.001.001-.001l2.906-3.604c.155-.193.425-.249.646-.136.22.114.329.367.26.606l-1.29 4.511c-.18.633-.756 1.075-1.399 1.075z" fill="#ffffff" data-original="#ffffff" style="" class=""/><path xmlns="http://www.w3.org/2000/svg" d="m18.25 24h-12.5c-1.517 0-2.75-1.233-2.75-2.75v-18.5c0-1.517 1.233-2.75 2.75-2.75h12.5c1.517 0 2.75 1.233 2.75 2.75v18.5c0 1.517-1.233 2.75-2.75 2.75zm-12.5-22.5c-.689 0-1.25.561-1.25 1.25v18.5c0 .689.561 1.25 1.25 1.25h12.5c.689 0 1.25-.561 1.25-1.25v-18.5c0-.689-.561-1.25-1.25-1.25z" fill="#4e4e5a" data-original="#000000" style="" class=""/><path xmlns="http://www.w3.org/2000/svg" d="m8.1 21c-1.159 0-2.1-.967-2.1-2.156 0-.5.171-.988.48-1.374.001 0 .001-.001.001-.001l4.185-5.19c.224-.278.611-.358.93-.195.316.165.474.529.375.872l-1.855 6.496c-.261.911-1.09 1.548-2.016 1.548zm-.451-2.589c-.096.12-.149.274-.149.433 0 .362.269.656.6.656.265 0 .495-.185.574-.46l.84-2.941z" fill="#4e4e5a" data-original="#000000" style="" class=""/><circle xmlns="http://www.w3.org/2000/svg" cx="16.5" cy="19.5" r="1.5" fill="#4e4e5a" data-original="#000000" style="" class=""/><path xmlns="http://www.w3.org/2000/svg" d="m14.361 14.43c-.275 0-.54-.152-.672-.415-.186-.37-.035-.821.335-1.006 1.528-.763 2.476-2.3 2.476-4.009 0-2.481-2.019-4.5-4.5-4.5s-4.5 2.019-4.5 4.5c0 .926.278 1.811.804 2.559.238.339.157.807-.182 1.045-.342.239-.808.156-1.045-.183-.705-1.002-1.077-2.185-1.077-3.421 0-3.309 2.691-6 6-6s6 2.691 6 6c0 2.281-1.266 4.332-3.304 5.351-.108.054-.222.079-.335.079z" fill="#4e4e5a" data-original="#000000" style="" class=""/></g></svg>
