<?xml version="1.0"?>
<svg xmlns="http://www.w3.org/2000/svg" xmlns:xlink="http://www.w3.org/1999/xlink" xmlns:svgjs="http://svgjs.com/svgjs" version="1.1" width="512" height="512" x="0" y="0" viewBox="0 0 24 24" style="enable-background:new 0 0 512 512" xml:space="preserve" class=""><g><path xmlns="http://www.w3.org/2000/svg" d="m16.25 18.25h-10.5c-1.105 0-2-.895-2-2v-10.5c0-1.105.895-2 2-2h10.5c1.105 0 2 .895 2 2v10.5c0 1.105-.895 2-2 2z" fill="#8cd57d" data-original="#607d8b" style="" class=""/><path xmlns="http://www.w3.org/2000/svg" d="m14.25 15.25h-6.5c-.552 0-1-.448-1-1v-6.5c0-.552.448-1 1-1h2.646c.265 0 .52.105.707.293l3.854 3.854c.188.188.293.442.293.707v2.646c0 .552-.448 1-1 1z" fill="#fbdf90" data-original="#cfd8dc" style="" class=""/><path xmlns="http://www.w3.org/2000/svg" d="m16.625 16.75c-3.651 0-6.625 2.499-6.625 5.568 0 .513.456.932 1.016.932h11.218c.559 0 1.016-.419 1.016-.932 0-3.069-2.974-5.568-6.625-5.568z" fill="#d37a7a" data-original="#00bcd4" style="" class=""/><path xmlns="http://www.w3.org/2000/svg" d="m7.25 19h-1.5c-1.517 0-2.75-1.233-2.75-2.75v-10.5c0-1.517 1.233-2.75 2.75-2.75h10.5c1.517 0 2.75 1.233 2.75 2.75v7.501c0 .414-.336.75-.75.75s-.75-.336-.75-.75v-7.501c0-.689-.561-1.25-1.25-1.25h-10.5c-.689 0-1.25.561-1.25 1.25v10.5c0 .689.561 1.25 1.25 1.25h1.5c.415 0 .75.336.75.75s-.335.75-.75.75z" fill="#4e4e5a" data-original="#000000" style="" class=""/><path xmlns="http://www.w3.org/2000/svg" d="m10.25 16h-2.5c-.965 0-1.75-.785-1.75-1.75v-6.5c0-.965.785-1.75 1.75-1.75h3.086c.467 0 .907.182 1.237.513l3.414 3.414c.331.33.513.77.513 1.237v2.086c0 .414-.336.75-.75.75s-.75-.336-.75-.75v-2.086c0-.066-.027-.13-.073-.177l-3.414-3.414c-.047-.046-.111-.073-.177-.073h-3.086c-.138 0-.25.112-.25.25v6.5c0 .138.112.25.25.25h2.5c.414 0 .75.336.75.75s-.336.75-.75.75z" fill="#4e4e5a" data-original="#000000" style="" class=""/><path xmlns="http://www.w3.org/2000/svg" d="m6.75 22c-.414 0-.75-.336-.75-.75v-2.75c0-.414.336-.75.75-.75s.75.336.75.75v2.75c0 .414-.336.75-.75.75z" fill="#4e4e5a" data-original="#000000" style="" class=""/><path xmlns="http://www.w3.org/2000/svg" d="m11 4.25c-.414 0-.75-.336-.75-.75v-2.75c0-.414.336-.75.75-.75s.75.336.75.75v2.75c0 .414-.336.75-.75.75z" fill="#4e4e5a" data-original="#000000" style="" class=""/><path xmlns="http://www.w3.org/2000/svg" d="m6.75 4.25c-.414 0-.75-.336-.75-.75v-2.75c0-.414.336-.75.75-.75s.75.336.75.75v2.75c0 .414-.336.75-.75.75z" fill="#4e4e5a" data-original="#000000" style="" class=""/><path xmlns="http://www.w3.org/2000/svg" d="m15.25 4.25c-.414 0-.75-.336-.75-.75v-2.75c0-.414.336-.75.75-.75s.75.336.75.75v2.75c0 .414-.336.75-.75.75z" fill="#4e4e5a" data-original="#000000" style="" class=""/><path xmlns="http://www.w3.org/2000/svg" d="m3.5 11.75h-2.75c-.414 0-.75-.336-.75-.75s.336-.75.75-.75h2.75c.414 0 .75.336.75.75s-.336.75-.75.75z" fill="#4e4e5a" data-original="#000000" style="" class=""/><path xmlns="http://www.w3.org/2000/svg" d="m3.5 7.5h-2.75c-.414 0-.75-.336-.75-.75s.336-.75.75-.75h2.75c.414 0 .75.336.75.75s-.336.75-.75.75z" fill="#4e4e5a" data-original="#000000" style="" class=""/><path xmlns="http://www.w3.org/2000/svg" d="m3.5 16h-2.75c-.414 0-.75-.336-.75-.75s.336-.75.75-.75h2.75c.414 0 .75.336.75.75s-.336.75-.75.75z" fill="#4e4e5a" data-original="#000000" style="" class=""/><path xmlns="http://www.w3.org/2000/svg" d="m21.25 11.75h-2.75c-.414 0-.75-.336-.75-.75s.336-.75.75-.75h2.75c.414 0 .75.336.75.75s-.336.75-.75.75z" fill="#4e4e5a" data-original="#000000" style="" class=""/><path xmlns="http://www.w3.org/2000/svg" d="m21.25 7.5h-2.75c-.414 0-.75-.336-.75-.75s.336-.75.75-.75h2.75c.414 0 .75.336.75.75s-.336.75-.75.75z" fill="#4e4e5a" data-original="#000000" style="" class=""/><path xmlns="http://www.w3.org/2000/svg" d="m23.25 24h-13.5c-.207 0-.403-.085-.545-.235-.142-.149-.215-.352-.204-.558.23-4.041 3.524-7.207 7.499-7.207s7.269 3.166 7.499 7.207c.012.206-.062.408-.204.558s-.338.235-.545.235zm-12.656-1.5h11.812c-.531-2.86-2.989-5-5.906-5s-5.375 2.14-5.906 5z" fill="#4e4e5a" data-original="#000000" style="" class=""/><path xmlns="http://www.w3.org/2000/svg" d="m16.5 23.993c-.149 0-.299-.044-.43-.136-.339-.238-.421-.706-.183-1.045l1.75-2.493c.238-.34.707-.421 1.044-.184.339.238.421.706.183 1.045l-1.75 2.493c-.146.209-.379.32-.614.32z" fill="#4e4e5a" data-original="#000000" style="" class=""/></g></svg>
