<?xml version="1.0"?>
<svg xmlns="http://www.w3.org/2000/svg" xmlns:xlink="http://www.w3.org/1999/xlink" xmlns:svgjs="http://svgjs.com/svgjs" version="1.1" width="512" height="512" x="0" y="0" viewBox="0 0 485.185 485.185" style="enable-background:new 0 0 512 512" xml:space="preserve" class=""><g>
<path xmlns="http://www.w3.org/2000/svg" style="" d="M480.854,120.5c-140.7-107.43-335.887-107.43-476.587,0c-4.713,3.535-5.668,10.221-2.133,14.933  l231.893,305.557c3.535,4.713,10.22,5.668,14.933,2.133c0.809-0.606,1.527-1.325,2.133-2.133l231.808-305.557  C486.455,130.743,485.539,124.061,480.854,120.5z" fill="#95e7aa" data-original="#64b5f6" class=""/>
<path xmlns="http://www.w3.org/2000/svg" d="M242.561,445.257c-3.357,0-6.519-1.581-8.533-4.267L2.219,135.433c-3.535-4.713-2.579-11.399,2.133-14.933  c140.696-107.42,335.87-107.42,476.565,0c4.713,3.535,5.668,10.221,2.133,14.933L251.094,440.991  C249.08,443.677,245.918,445.257,242.561,445.257z M25.75,131.145l216.811,285.803l216.811-285.867  c-129.513-93.188-304.087-93.188-433.6,0L25.75,131.145z" fill="#4e4e5a" data-original="#000000" style="" class=""/>
<g xmlns="http://www.w3.org/2000/svg">
</g>
<g xmlns="http://www.w3.org/2000/svg">
</g>
<g xmlns="http://www.w3.org/2000/svg">
</g>
<g xmlns="http://www.w3.org/2000/svg">
</g>
<g xmlns="http://www.w3.org/2000/svg">
</g>
<g xmlns="http://www.w3.org/2000/svg">
</g>
<g xmlns="http://www.w3.org/2000/svg">
</g>
<g xmlns="http://www.w3.org/2000/svg">
</g>
<g xmlns="http://www.w3.org/2000/svg">
</g>
<g xmlns="http://www.w3.org/2000/svg">
</g>
<g xmlns="http://www.w3.org/2000/svg">
</g>
<g xmlns="http://www.w3.org/2000/svg">
</g>
<g xmlns="http://www.w3.org/2000/svg">
</g>
<g xmlns="http://www.w3.org/2000/svg">
</g>
<g xmlns="http://www.w3.org/2000/svg">
</g>
</g></svg>
