<?xml version="1.0" encoding="UTF-8" standalone="no"?><!-- Generator: Gravit.io --><svg xmlns="http://www.w3.org/2000/svg" xmlns:xlink="http://www.w3.org/1999/xlink" style="isolation:isolate" viewBox="0 0 24 24" width="24pt" height="24pt"><defs><clipPath id="_clipPath_7OuWNicgnwCIYm4v2cc1c1IrjNY8wDrH"><rect width="24" height="24"/></clipPath></defs><g clip-path="url(#_clipPath_7OuWNicgnwCIYm4v2cc1c1IrjNY8wDrH)"><rect x="1" y="1" width="22" height="22" transform="matrix(1,0,0,1,0,0)" fill="rgb(235,235,235)"/><rect x="1" y="1" width="4.4" height="11" transform="matrix(1,0,0,1,0,0)" fill="rgb(116,124,145)"/><rect x="9.8" y="1" width="4.4" height="11" transform="matrix(1,0,0,1,0,0)" fill="rgb(80,191,185)"/><rect x="14.2" y="1" width="4.4" height="11" transform="matrix(1,0,0,1,0,0)" fill="rgb(239,106,108)"/><rect x="18.6" y="1" width="4.4" height="11" transform="matrix(1,0,0,1,0,0)" fill="rgb(151,179,234)"/><rect x="5.4" y="1" width="4.4" height="11" transform="matrix(1,0,0,1,0,0)" fill="rgb(246,191,138)"/><circle vector-effect="non-scaling-stroke" cx="12" cy="11.999999999999996" r="7.000000000000001" fill="rgb(64,67,87)"/></g></svg>